<?xml version="1.0" standalone="no"?>
<!DOCTYPE svg PUBLIC "-//W3C//DTD SVG 20010904//EN"
 "http://www.w3.org/TR/2001/REC-SVG-20010904/DTD/svg10.dtd">
<svg version="1.0" xmlns="http://www.w3.org/2000/svg"
 width="300.000000pt" height="300.000000pt" viewBox="0 0 300.000000 300.000000"
 preserveAspectRatio="xMidYMid meet">
<metadata>
Created by potrace 1.10, written by Peter Selinger 2001-2011
</metadata>
<g transform="translate(0.000000,300.000000) scale(0.100000,-0.100000)"
fill="#000000" stroke="none">
<path d="M2005 2705 c-82 -7 -204 -18 -270 -24 -66 -6 -145 -11 -176 -11 -83
0 -148 -23 -190 -67 -25 -26 -67 -105 -132 -243 -52 -113 -166 -356 -252 -540
-86 -184 -172 -369 -192 -410 -238 -511 -263 -569 -263 -600 0 -43 32 -97 64
-109 13 -5 93 -13 177 -17 85 -3 156 -8 158 -10 2 -2 10 1 16 6 9 7 27 7 58 0
54 -12 244 -25 337 -24 110 2 188 58 225 163 11 28 23 51 27 51 4 0 8 9 8 21
0 12 7 35 15 52 8 18 23 55 34 83 11 28 29 71 39 95 23 50 141 323 179 414 14
33 34 78 43 100 34 77 259 612 330 784 79 191 83 222 36 269 -31 32 -76 35
-271 17z m189 -21 c9 -3 16 -17 16 -30 0 -20 -64 -185 -140 -359 -9 -22 -30
-71 -45 -108 -23 -54 -32 -66 -44 -60 -20 10 -127 10 -341 0 -224 -10 -386
-11 -399 -3 -6 4 -11 3 -11 -2 0 -9 -70 -25 -77 -18 -8 8 101 225 110 219 6
-3 7 -1 4 4 -10 16 13 74 26 66 5 -3 7 -1 4 4 -4 6 11 49 32 96 49 107 82 134
175 146 63 7 84 2 72 -18 -15 -23 22 -30 124 -21 58 5 145 12 194 16 81 5 91
9 115 34 26 28 37 31 143 38 14 1 33 -1 42 -4z m56 -27 c0 -12 -16 -61 -36
-107 -45 -107 -55 -146 -15 -60 17 36 40 83 51 105 18 35 20 36 14 10 -4 -16
-7 -41 -8 -55 -1 -14 -5 -24 -10 -22 -9 3 -34 -54 -203 -463 -52 -126 -115
-279 -140 -340 -25 -60 -58 -142 -73 -180 -15 -39 -40 -95 -54 -125 -15 -30
-24 -61 -21 -68 3 -8 0 -10 -7 -6 -7 5 -9 0 -6 -14 4 -12 3 -20 -2 -17 -11 7
-21 -22 -13 -42 5 -12 3 -14 -7 -8 -8 5 -11 4 -7 -3 9 -14 -3 -43 -14 -36 -5
3 -9 -2 -9 -10 0 -27 -1 -31 -14 -46 -7 -8 -25 -49 -41 -90 -15 -41 -37 -92
-47 -113 -14 -29 -16 -42 -8 -52 12 -15 -3 -31 -20 -20 -5 3 -14 -14 -21 -37
-20 -76 -73 -137 -147 -170 -45 -20 -65 -20 -327 2 -60 5 -184 12 -274 15
-110 4 -175 10 -199 20 -19 9 -33 17 -31 19 4 3 119 -3 494 -24 284 -16 345
-14 345 14 0 7 14 25 31 42 35 33 60 79 94 168 13 34 34 86 48 116 13 30 59
138 101 240 43 102 90 214 106 250 15 36 42 99 59 140 16 41 51 125 76 185 26
61 58 139 72 175 45 115 65 164 78 195 23 50 94 221 130 312 19 47 35 94 35
104 0 11 5 19 10 19 6 0 10 -10 10 -23z m-400 -7 c0 -6 -25 -9 -57 -8 l-58 1
50 7 c28 4 53 8 58 8 4 1 7 -2 7 -8z m294 -407 c-9 -21 -28 -67 -42 -102 -15
-35 -28 -59 -30 -53 -4 13 71 192 81 192 4 0 0 -17 -9 -37z m-157 -145 c-10
-25 -191 -459 -299 -713 -60 -143 -137 -325 -170 -405 -33 -80 -70 -156 -82
-168 -49 -55 -48 -55 -409 -38 -453 22 -457 22 -457 73 0 13 48 126 106 251
59 125 132 283 164 352 31 69 94 204 139 300 45 96 98 209 118 252 l35 76 122
6 c206 10 536 23 640 24 75 2 97 -1 93 -10z"/>
<path d="M1567 2433 c-4 -4 -51 -8 -105 -9 -141 -3 -142 -3 -142 -12 0 -4 25
-7 55 -8 30 0 55 3 55 8 0 4 10 4 23 -1 12 -4 28 -6 35 -4 17 7 15 -22 -3 -37
-11 -9 -19 -10 -26 -3 -6 6 -24 8 -45 3 -20 -5 -37 -4 -40 2 -3 5 -11 4 -20
-3 -8 -6 -14 -7 -14 -2 0 16 -24 11 -42 -9 -17 -17 -17 -18 0 -19 9 0 25 -2
34 -4 10 -2 20 0 23 5 2 4 16 5 30 2 47 -8 20 -27 -55 -37 -50 -7 -75 -15 -78
-25 -5 -13 -3 -13 11 -1 12 10 17 10 17 2 0 -14 51 -11 62 3 4 6 12 5 21 -3
12 -9 16 -9 19 0 3 9 9 9 23 2 11 -6 30 -7 47 -3 29 9 41 2 29 -18 -4 -6 -46
-14 -101 -17 -121 -8 -149 -13 -129 -26 12 -7 11 -9 -3 -9 -9 0 -19 -4 -23 -9
-3 -6 4 -8 17 -5 13 2 111 7 218 10 107 4 198 9 202 13 4 3 -40 4 -98 3 l-106
-4 22 22 c13 13 20 29 17 41 -4 15 0 19 21 20 15 1 32 2 37 4 6 1 63 3 128 3
102 2 119 4 137 22 11 11 20 28 19 38 0 11 -4 7 -11 -10 -7 -21 -17 -28 -36
-29 -15 -1 -68 -3 -119 -5 -86 -4 -91 -3 -86 15 6 24 34 36 45 19 4 -7 8 -9 8
-4 0 5 7 3 15 -4 8 -7 15 -9 15 -4 0 5 19 10 41 10 23 1 46 8 51 15 7 11 11
11 15 2 6 -17 30 -17 36 0 4 10 -6 13 -40 11 -36 -2 -44 0 -39 11 3 8 1 15 -3
15 -5 0 -11 -5 -13 -12 -3 -9 -37 -13 -107 -14 -75 -2 -101 1 -98 9 2 7 18 13
35 15 18 2 32 7 32 13 0 5 14 9 31 9 16 0 28 -4 25 -8 -3 -5 5 -7 17 -6 12 1
35 3 51 3 16 1 27 4 24 7 -9 9 -153 16 -161 7z m7 -95 c-9 -31 -14 -35 -23
-19 -6 9 -11 10 -15 2 -4 -6 -32 -11 -62 -11 -41 0 -54 4 -54 15 0 17 -3 16
74 21 32 2 61 6 64 9 13 13 23 3 16 -17z"/>
<path d="M1515 2179 c-17 -4 12 -7 68 -8 53 0 97 3 97 7 0 9 -122 10 -165 1z"/>
<path d="M1305 2169 c-24 -5 -20 -7 23 -8 28 0 52 1 52 3 0 8 -47 11 -75 5z"/>
<path d="M2151 2399 c-19 -49 -121 -287 -161 -379 -24 -52 -57 -131 -75 -175
-18 -44 -97 -233 -175 -420 -78 -187 -165 -394 -192 -460 -63 -151 -64 -153
-102 -194 -21 -23 -25 -30 -11 -23 42 22 72 74 148 262 19 47 59 144 89 215
30 72 89 213 132 315 42 102 94 226 115 275 21 50 67 158 101 240 35 83 83
197 107 254 24 57 41 106 38 109 -2 3 -9 -6 -14 -19z"/>
<path d="M1200 2010 c0 -3 -18 -4 -40 -2 -32 3 -40 1 -40 -12 0 -18 22 -21 51
-6 10 6 19 7 19 3 0 -12 133 0 137 12 2 6 -23 10 -62 10 -36 0 -65 -2 -65 -5z"/>
<path d="M1206 1904 c-3 -9 -6 -17 -6 -20 0 -10 124 2 127 13 3 8 -7 11 -34
10 -21 -2 -48 0 -60 4 -15 6 -23 3 -27 -7z"/>
<path d="M1343 1906 c-9 -13 12 -21 53 -21 27 1 40 5 42 17 2 12 -6 15 -43 14
-26 0 -49 -5 -52 -10z"/>
<path d="M1086 1883 c-33 -36 -33 -43 3 -43 24 0 29 5 33 30 6 42 -6 46 -36
13z"/>
<path d="M1180 1836 c0 -12 21 -14 143 -11 170 4 157 3 157 13 0 6 -140 7
-225 1 -16 -1 -40 1 -52 5 -17 5 -23 3 -23 -8z"/>
<path d="M1546 1843 c-15 -15 -3 -20 29 -13 19 4 35 5 37 1 4 -10 88 -1 88 10
0 9 -145 11 -154 2z"/>
<path d="M1118 1713 c-13 -16 4 -23 52 -20 21 2 36 8 38 17 3 19 -74 22 -90 3z"/>
<path d="M1000 1699 c0 -5 -4 -8 -9 -5 -8 6 -21 -15 -21 -35 0 -17 29 -9 40
10 13 25 13 41 0 41 -5 0 -10 -5 -10 -11z"/>
<path d="M1089 1644 c-9 -11 -6 -14 20 -14 34 0 42 15 11 23 -10 3 -24 -1 -31
-9z"/>
<path d="M1173 1653 c-31 -6 -29 -23 2 -23 16 0 25 6 25 15 0 8 -1 14 -2 14
-2 -1 -13 -4 -25 -6z"/>
<path d="M1267 1637 c-4 -10 3 -12 24 -9 40 6 47 22 11 22 -17 0 -32 -6 -35
-13z"/>
<path d="M1340 1640 c0 -12 79 -10 86 2 3 4 -15 8 -40 8 -25 0 -46 -4 -46 -10z"/>
<path d="M1157 1533 c-4 -3 -7 -15 -7 -25 0 -14 8 -18 33 -18 34 0 57 15 57
37 0 14 -71 19 -83 6z"/>
<path d="M1027 1516 c-3 -8 -4 -16 -2 -18 8 -8 105 5 105 14 0 6 -19 9 -44 7
-24 -2 -42 -1 -39 4 2 4 0 7 -5 7 -6 0 -12 -6 -15 -14z"/>
<path d="M891 1487 c-7 -7 -4 -15 7 -23 25 -19 49 -17 55 5 4 15 -2 20 -24 23
-16 3 -33 0 -38 -5z"/>
<path d="M1000 1448 c0 -5 23 -8 50 -8 28 0 50 3 50 8 0 4 -22 7 -50 7 -27 0
-50 -3 -50 -7z"/>
<path d="M1326 1453 c-13 -13 -5 -18 27 -18 17 0 33 4 35 10 3 11 -51 18 -62
8z"/>
<path d="M1110 1442 c0 -5 27 -9 60 -9 33 0 60 4 60 9 0 4 -27 8 -60 8 -33 0
-60 -4 -60 -8z"/>
<path d="M1250 1440 c0 -5 14 -10 30 -10 17 0 30 5 30 10 0 6 -13 10 -30 10
-16 0 -30 -4 -30 -10z"/>
<path d="M819 1310 c-13 -11 -19 -20 -14 -21 45 -7 55 -5 55 12 0 27 -15 31
-41 9z"/>
<path d="M940 1313 c0 -11 18 -13 87 -11 120 4 123 25 3 25 -70 0 -90 -3 -90
-14z"/>
<path d="M910 1246 c0 -8 13 -12 32 -11 45 2 48 23 4 23 -22 0 -36 -5 -36 -12z"/>
<path d="M1023 1252 c-53 -5 -38 -19 20 -18 29 1 50 5 47 11 -6 10 -19 12 -67
7z"/>
<path d="M1143 1252 c-18 -2 -33 -7 -33 -11 0 -10 158 -12 165 -1 6 9 -81 17
-132 12z"/>
<path d="M1290 1245 c0 -11 12 -15 45 -15 26 0 45 5 45 11 0 7 -9 9 -21 6 -12
-3 -32 -2 -45 3 -19 7 -24 6 -24 -5z"/>
<path d="M728 1115 c-3 -11 -9 -29 -13 -40 -5 -15 -4 -16 3 -6 6 8 17 11 25 8
9 -3 18 1 21 9 8 22 8 24 -8 24 -8 0 -16 6 -18 12 -3 7 -7 4 -10 -7z"/>
<path d="M847 1115 c-4 -9 15 -13 71 -15 229 -8 232 -8 232 6 0 10 -17 14 -67
15 -38 0 -105 2 -150 4 -59 2 -83 0 -86 -10z"/>
<path d="M1191 1121 c-14 -4 -26 -12 -28 -18 -3 -7 21 -11 72 -12 60 -1 75 2
75 14 0 11 -10 14 -38 13 -22 0 -43 1 -48 4 -5 3 -20 2 -33 -1z"/>
<path d="M820 1048 c0 -11 16 -15 69 -16 38 -1 74 -3 81 -4 7 -2 15 3 17 10 3
9 -14 12 -65 12 -39 0 -77 3 -86 6 -10 4 -16 1 -16 -8z"/>
<path d="M1060 1042 c-24 -8 -7 -17 32 -16 24 0 43 4 43 9 0 8 -56 13 -75 7z"/>
<path d="M1164 1031 c8 -12 143 -13 151 -1 4 6 -23 10 -75 10 -45 0 -79 -4
-76 -9z"/>
<path d="M677 922 c-22 -24 -21 -32 3 -32 23 0 38 26 23 41 -6 6 -16 3 -26 -9z"/>
<path d="M888 908 l-23 -23 29 -3 c28 -3 49 13 43 32 -6 19 -26 17 -49 -6z"/>
<path d="M1117 896 c-15 -23 -15 -23 9 -23 19 0 24 5 24 23 0 13 -4 24 -9 24
-5 0 -16 -11 -24 -24z"/>
<path d="M1356 901 c-13 -14 -16 -26 -10 -38 7 -15 8 -14 12 10 2 15 8 27 14
27 5 0 7 -7 4 -16 -4 -10 -1 -14 6 -12 16 6 17 40 2 45 -6 2 -19 -5 -28 -16z"/>
<path d="M623 855 c4 -12 77 -18 77 -6 0 5 -18 11 -40 13 -25 2 -39 0 -37 -7z"/>
<path d="M820 850 c0 -10 108 -25 117 -16 10 10 1 13 -59 19 -32 3 -58 2 -58
-3z"/>
<path d="M1050 837 c0 -11 14 -15 54 -16 30 0 58 4 61 9 4 6 -11 10 -39 10
-24 0 -51 3 -60 6 -10 4 -16 1 -16 -9z"/>
<path d="M1315 820 c3 -5 17 -10 31 -10 13 0 24 5 24 10 0 6 -14 10 -31 10
-17 0 -28 -4 -24 -10z"/>
<path d="M410 2249 l0 -261 43 7 c120 20 204 115 215 241 4 52 0 71 -21 118
-14 31 -38 68 -54 82 -36 34 -120 74 -155 74 l-28 0 0 -261z m108 212 c46 -24
84 -64 110 -117 41 -81 14 -203 -60 -271 -27 -25 -102 -57 -120 -51 -10 4 -13
55 -14 224 -1 120 0 222 3 227 7 13 43 8 81 -12z"/>
<path d="M1065 2256 c-347 -113 -610 -416 -675 -777 -15 -79 -15 -267 -1 -345
15 -80 54 -200 85 -263 15 -28 28 -51 30 -51 7 0 -14 69 -44 144 -40 100 -57
193 -59 323 -5 275 93 518 286 710 114 114 240 191 393 242 36 12 72 26 80 31
27 18 -20 11 -95 -14z"/>
<path d="M2090 1994 c0 -5 30 -50 66 -99 187 -253 244 -538 167 -838 -17 -68
-13 -109 6 -62 7 16 18 59 26 95 57 275 3 552 -153 781 -49 73 -112 142 -112
123z"/>
<path d="M2221 921 c-84 -34 -161 -138 -161 -218 l0 -23 260 0 260 0 -1 28
c-1 76 -76 178 -156 213 -56 24 -143 24 -202 0z m184 -26 c66 -28 155 -148
129 -174 -3 -3 -87 -7 -187 -8 -100 -1 -199 -5 -219 -9 -38 -6 -38 -6 -38 27
0 38 46 123 62 113 7 -5 8 -2 4 5 -5 8 0 14 13 18 12 3 21 9 21 14 0 5 21 15
48 23 50 16 116 12 167 -9z"/>
<path d="M618 653 c122 -156 349 -287 577 -334 78 -16 283 -16 360 0 216 45
390 138 534 285 84 85 55 76 -43 -14 -134 -122 -311 -213 -484 -249 -297 -61
-661 48 -862 259 -19 20 -53 50 -75 66 l-40 29 33 -42z"/>
<path d="M1468 635 c-20 -8 -68 -17 -105 -20 -37 -4 -70 -10 -73 -12 -11 -11
138 7 183 23 26 9 47 18 47 20 0 6 -12 4 -52 -11z"/>
</g>
</svg>
