<?xml version="1.0" standalone="no"?>
<!DOCTYPE svg PUBLIC "-//W3C//DTD SVG 20010904//EN"
 "http://www.w3.org/TR/2001/REC-SVG-20010904/DTD/svg10.dtd">
<svg version="1.0" xmlns="http://www.w3.org/2000/svg"
 width="300.000000pt" height="371.000000pt" viewBox="0 0 300.000000 371.000000"
 preserveAspectRatio="xMidYMid meet">
<metadata>
Created by potrace 1.10, written by Peter Selinger 2001-2011
</metadata>
<g transform="translate(0.000000,371.000000) scale(0.100000,-0.100000)"
fill="#000000" stroke="none">
<path d="M919 3394 c-19 -8 -43 -29 -54 -46 -21 -36 -22 -66 -30 -693 -3 -220
-8 -415 -11 -432 -4 -22 -12 -33 -23 -33 -18 0 -63 50 -96 107 -23 38 -12 56
43 74 56 17 62 29 15 29 -89 0 -120 -70 -64 -147 42 -58 80 -85 113 -81 l28 5
-1 -61 c-2 -54 -3 -56 -8 -21 -6 41 -25 53 -81 53 l-25 -1 24 -4 c22 -4 51
-25 52 -37 0 -3 13 -35 30 -71 32 -72 35 -97 16 -146 -8 -21 -11 -46 -6 -64
l7 -30 2 35 c2 33 3 33 10 10 12 -37 12 -152 0 -145 -5 3 -10 21 -11 38 -1 31
-1 31 -9 7 -6 -18 -8 -7 -9 42 l-1 67 -34 -6 c-18 -3 -43 0 -55 6 -17 10 -22
9 -28 -5 -6 -16 14 -37 29 -28 4 2 22 -16 40 -42 18 -25 53 -66 77 -90 25 -24
50 -55 55 -69 l11 -25 357 -3 358 -2 26 48 c35 64 47 108 28 100 -10 -4 -14 4
-14 30 0 20 5 39 10 42 6 3 10 -3 10 -14 0 -11 3 -22 8 -24 4 -3 7 74 7 170 0
96 2 176 5 178 10 6 66 -51 62 -63 -6 -18 54 -15 94 4 39 19 46 38 8 24 -46
-18 -76 -12 -109 23 -18 17 -39 37 -47 43 -11 9 -17 42 -22 110 -7 107 0 151
27 168 26 16 48 -3 72 -61 11 -28 27 -58 35 -68 14 -17 14 -18 -10 -5 -25 13
-25 13 -7 -7 10 -11 35 -28 57 -38 22 -10 40 -22 40 -27 0 -4 6 -8 13 -8 6 0
27 -12 44 -28 32 -27 33 -28 28 -102 -20 -355 -25 -932 -7 -937 6 -3 12 -10
12 -17 0 -17 42 -119 51 -126 11 -8 76 -126 84 -152 4 -13 27 -54 50 -93 24
-38 53 -92 65 -120 13 -27 27 -58 32 -68 5 -10 6 -22 3 -27 -4 -6 -132 -10
-325 -10 -339 1 -339 1 -355 49 -3 11 -12 22 -20 25 -18 7 -18 -2 0 -34 17
-29 19 -44 5 -35 -6 3 -7 -1 -4 -9 5 -14 51 -16 380 -16 l374 0 -65 128 c-64
127 -125 241 -202 382 -78 141 -81 164 -72 570 5 195 13 399 18 453 6 56 6
109 1 121 -4 13 -35 40 -67 61 -86 56 -106 78 -143 156 -36 73 -35 72 -90 58
-8 -2 -14 1 -13 6 1 6 4 196 7 422 6 448 5 459 -49 502 -35 27 -63 29 -415 35
-252 4 -311 2 -341 -10z m357 -30 c-3 -8 1 -14 10 -14 8 0 12 5 9 10 -4 6 37
10 117 9 140 0 213 -10 233 -30 16 -16 27 -80 16 -97 -4 -6 -74 -12 -193 -14
l-187 -3 -8 30 c-6 21 -16 31 -33 33 -21 3 -22 2 -11 -12 7 -8 10 -20 6 -26
-7 -11 -100 -13 -233 -4 l-92 7 0 43 c0 60 13 65 172 62 129 -3 133 -4 136
-25 2 -15 10 -23 22 -23 16 0 17 4 9 32 -12 45 -12 47 12 41 12 -3 18 -11 15
-19z m433 -218 l-2 -151 -8 135 c-4 74 -9 150 -12 169 -3 29 -2 31 10 15 9
-13 13 -58 12 -168z m-832 97 c-4 -43 -8 -335 -9 -650 -2 -314 -6 -569 -10
-567 -7 4 0 1259 7 1282 3 6 7 12 11 12 4 0 4 -35 1 -77z m612 -49 l194 -6 -4
-694 -4 -694 -399 0 -399 0 6 467 c4 256 7 572 7 702 l0 236 202 -2 c112 -2
290 -6 397 -9z m208 -696 c-1 -46 -3 -11 -3 77 0 88 2 125 3 83 2 -42 2 -114
0 -160z m0 -600 c-1 -46 -3 -9 -3 82 0 91 2 128 3 83 2 -46 2 -120 0 -165z
m-227 -147 l185 -6 3 -25 c2 -15 -7 -41 -20 -60 l-24 -35 -329 -2 -330 -2 -27
39 c-27 38 -36 79 -21 93 8 8 300 7 563 -2z"/>
<path d="M1275 3300 c3 -5 24 -10 46 -10 24 0 38 4 34 10 -3 6 -24 10 -46 10
-24 0 -38 -4 -34 -10z"/>
<path d="M677 2111 c-49 -59 -48 -101 5 -180 39 -58 37 -55 44 -49 3 3 -4 21
-15 39 -26 43 -26 69 0 103 14 18 16 26 7 26 -7 0 -21 -12 -30 -27 l-17 -28
-1 25 c0 14 9 40 21 59 30 50 21 73 -14 32z"/>
<path d="M1744 1994 c-8 -19 -17 -66 -19 -102 -4 -67 -4 -67 4 -12 4 30 18 74
29 97 25 48 26 53 11 53 -5 0 -17 -16 -25 -36z"/>
<path d="M654 1748 c-5 -7 -10 -32 -12 -54 -3 -39 1 -47 60 -113 35 -39 71
-71 82 -71 16 0 17 2 5 17 -8 10 -20 25 -28 33 -8 8 -21 30 -29 50 -11 25 -17
30 -20 18 -5 -26 -15 -22 -34 13 -21 36 -23 60 -5 78 10 11 9 14 -1 18 -6 3
-10 9 -6 14 3 5 3 9 0 9 -3 0 -8 -6 -12 -12z"/>
<path d="M943 1547 c26 -40 22 -50 -18 -43 -21 4 -42 2 -55 -6 -25 -16 -26
-28 -2 -28 10 0 22 -4 28 -8 12 -10 64 -33 64 -28 0 2 -14 13 -31 24 l-31 19
31 5 c34 5 61 -19 61 -53 0 -20 52 -55 95 -64 21 -4 14 3 -27 25 -48 25 -58
35 -60 58 -3 65 -5 83 -9 85 -2 2 -17 11 -34 22 l-30 18 18 -26z"/>
<path d="M1204 1535 c-8 -13 -28 -60 -43 -104 l-28 -81 26 -17 c21 -13 23 -13
13 -1 -10 12 -9 29 6 89 11 41 26 89 36 107 19 38 14 43 -10 7z"/>
<path d="M1316 1445 c-10 -31 -15 -59 -13 -62 7 -6 39 95 35 108 -2 6 -12 -15
-22 -46z"/>
<path d="M750 1471 c-17 -33 -12 -86 10 -106 22 -20 26 -9 9 29 -9 19 -8 31 5
57 20 39 20 39 1 39 -8 0 -19 -9 -25 -19z"/>
<path d="M801 1328 c23 -45 53 -68 116 -89 84 -28 93 -16 15 18 -44 20 -62 33
-62 47 0 15 -3 16 -14 7 -11 -9 -18 -6 -34 14 -25 31 -37 33 -21 3z"/>
<path d="M1010 1309 c-15 -36 -6 -49 53 -74 50 -21 47 -5 -4 19 -39 17 -41 21
-36 52 7 42 3 43 -13 3z"/>
<path d="M980 1199 c0 -8 9 -25 18 -37 l18 -24 18 27 c20 31 14 44 -10 24 -14
-11 -18 -11 -30 6 -10 13 -14 15 -14 4z"/>
<path d="M1040 1130 c0 -6 10 -14 23 -19 12 -5 39 -26 59 -47 47 -49 76 -74
86 -74 4 0 15 -12 25 -28 11 -15 30 -35 43 -45 l24 -18 -16 34 c-9 19 -30 42
-46 51 -16 10 -27 23 -25 30 3 7 -4 13 -15 13 -10 1 -38 22 -61 46 -53 55 -97
81 -97 57z"/>
<path d="M1349 853 c51 -75 118 -140 130 -128 7 7 -8 25 -39 50 -27 22 -49 47
-50 55 0 17 -56 80 -71 80 -5 0 8 -26 30 -57z"/>
<path d="M1519 716 c-24 -7 -34 -16 -31 -26 4 -12 84 -125 99 -140 16 -16 -52
99 -69 117 l-22 23 32 12 c18 7 32 16 32 20 0 4 -1 8 -2 7 -2 -1 -19 -6 -39
-13z"/>
<path d="M1620 265 l0 -46 53 3 c49 3 52 5 55 32 4 36 -3 42 -60 50 l-48 7 0
-46z m90 -7 c0 -28 -2 -29 -37 -26 -33 3 -38 6 -38 28 0 36 0 37 39 32 32 -4
36 -7 36 -34z"/>
<path d="M2827 304 c-14 -14 -7 -41 16 -62 30 -28 38 -28 66 2 35 38 25 60
-29 64 -25 2 -49 0 -53 -4z m83 -23 c0 -8 -8 -23 -17 -33 -16 -18 -17 -18 -39
3 -30 28 -22 45 21 45 24 0 35 -5 35 -15z"/>
<path d="M1806 272 c-21 -40 -21 -39 14 -38 28 1 30 4 25 26 -10 41 -22 44
-39 12z"/>
<path d="M1878 281 c-24 -24 -23 -51 2 -51 16 0 20 7 20 35 0 40 1 40 -22 16z"/>
<path d="M1931 281 c-28 -21 -23 -51 9 -51 16 0 20 6 20 35 0 19 -1 35 -2 35
-2 0 -14 -9 -27 -19z"/>
<path d="M1990 260 c0 -16 5 -30 10 -30 6 0 10 14 10 30 0 17 -4 30 -10 30 -5
0 -10 -13 -10 -30z"/>
<path d="M2320 280 c-31 -7 -35 -43 -5 -48 18 -3 19 -2 2 8 -19 12 -14 30 9
30 8 0 14 -9 14 -20 0 -11 4 -20 8 -20 8 0 9 47 1 53 -2 2 -15 1 -29 -3z"/>
<path d="M2024 265 c-4 -9 -2 -21 4 -27 15 -15 44 -1 40 19 -4 23 -36 29 -44
8z"/>
<path d="M2144 265 c-4 -9 -2 -21 4 -27 15 -15 44 -1 40 19 -4 23 -36 29 -44
8z"/>
<path d="M2244 265 c-8 -19 3 -35 24 -35 15 0 15 2 2 10 -10 6 -11 10 -2 10 6
0 12 7 12 15 0 19 -29 20 -36 0z"/>
<path d="M2394 265 c-3 -8 -3 -19 1 -25 9 -14 32 -13 38 3 4 10 6 10 6 0 2
-22 19 -14 24 10 l4 22 2 -22 c0 -13 6 -23 12 -23 6 0 9 10 7 22 -3 26 -36 37
-49 16 -6 -10 -9 -10 -9 0 0 17 -29 15 -36 -3z"/>
</g>
</svg>
